<mxfile host="app.diagrams.net" modified="2023-09-12T22:41:56.365Z" agent="Mozilla/5.0 (X11; Linux x86_64) AppleWebKit/537.36 (KHTML, like Gecko) Chrome/116.0.0.0 Safari/537.36" etag="6sX0CWhm4ynVpS0Z335z" version="21.7.4" type="github">
  <diagram name="Page-1" id="r9R68RYOYHVjIktUaz-a">
    <mxGraphModel dx="1364" dy="923" grid="0" gridSize="10" guides="1" tooltips="1" connect="1" arrows="1" fold="1" page="1" pageScale="1" pageWidth="850" pageHeight="1100" math="0" shadow="0">
      <root>
        <mxCell id="0" />
        <mxCell id="1" parent="0" />
        <mxCell id="1f-LT_Su_b2MnICcZXaS-1" value="Design Decision Maps:&#xa;features" style="text;html=1;strokeColor=none;fillColor=none;align=center;verticalAlign=middle;whiteSpace=wrap;rounded=0;fontSize=17;fontStyle=1" vertex="1" parent="1">
          <mxGeometry x="80" y="54" width="185" height="76" as="geometry" />
        </mxCell>
        <mxCell id="1f-LT_Su_b2MnICcZXaS-2" style="rounded=0;orthogonalLoop=1;jettySize=auto;html=1;dashed=1;" edge="1" parent="1" source="1f-LT_Su_b2MnICcZXaS-4" target="1f-LT_Su_b2MnICcZXaS-5">
          <mxGeometry relative="1" as="geometry" />
        </mxCell>
        <mxCell id="1f-LT_Su_b2MnICcZXaS-3" style="rounded=0;orthogonalLoop=1;jettySize=auto;html=1;dashed=1;" edge="1" parent="1" source="1f-LT_Su_b2MnICcZXaS-4" target="1f-LT_Su_b2MnICcZXaS-6">
          <mxGeometry relative="1" as="geometry" />
        </mxCell>
        <mxCell id="1f-LT_Su_b2MnICcZXaS-4" value="&lt;div style=&quot;font-size: 19px&quot;&gt;&lt;span style=&quot;font-size: 19px ; font-family: &amp;quot;verdana&amp;quot; ; color: rgb(0 , 0 , 0) ; background-color: transparent ; font-style: normal ; font-variant: normal ; text-decoration: none ; vertical-align: baseline ; white-space: pre-wrap&quot; id=&quot;docs-internal-guid-dfabfe22-7fff-f653-d9ae-e8eaf7c66f73&quot;&gt;Automated waste sorting&lt;/span&gt;&lt;/div&gt;" style="ellipse;whiteSpace=wrap;html=1;aspect=fixed;strokeColor=#000000;strokeWidth=1;fillColor=#FFFFFF;shadow=1;fontSize=19;fontStyle=0" vertex="1" parent="1">
          <mxGeometry x="350" y="130" width="185" height="185" as="geometry" />
        </mxCell>
        <mxCell id="1f-LT_Su_b2MnICcZXaS-5" value="&lt;font style=&quot;font-size: 14px&quot;&gt;Computer Vision&lt;/font&gt;" style="ellipse;whiteSpace=wrap;html=1;fillColor=#D4E1F5;shadow=0;" vertex="1" parent="1">
          <mxGeometry x="55" y="185" width="165" height="120" as="geometry" />
        </mxCell>
        <mxCell id="1f-LT_Su_b2MnICcZXaS-6" value="&lt;font style=&quot;font-size: 14px&quot;&gt;Robotics Arms&lt;/font&gt;" style="ellipse;whiteSpace=wrap;html=1;fillColor=#D4E1F5;shadow=0;" vertex="1" parent="1">
          <mxGeometry x="670" y="185" width="165" height="120" as="geometry" />
        </mxCell>
        <mxCell id="1f-LT_Su_b2MnICcZXaS-7" value="&lt;font style=&quot;font-size: 14px&quot;&gt;Waste type dectection&lt;/font&gt;" style="ellipse;whiteSpace=wrap;html=1;fillColor=#D4E1F5;shadow=0;" vertex="1" parent="1">
          <mxGeometry x="260" y="420" width="165" height="120" as="geometry" />
        </mxCell>
        <mxCell id="1f-LT_Su_b2MnICcZXaS-8" value="" style="endArrow=classic;html=1;fontColor=#00CC00;strokeColor=#00CC00;rounded=0;" edge="1" parent="1" source="1f-LT_Su_b2MnICcZXaS-5" target="1f-LT_Su_b2MnICcZXaS-7">
          <mxGeometry width="50" height="50" relative="1" as="geometry">
            <mxPoint x="90" y="440" as="sourcePoint" />
            <mxPoint x="190" y="440.5" as="targetPoint" />
          </mxGeometry>
        </mxCell>
        <mxCell id="1f-LT_Su_b2MnICcZXaS-10" value="" style="endArrow=classic;html=1;fontColor=#00CC00;strokeColor=#00CC00;rounded=0;exitX=0.5;exitY=1;exitDx=0;exitDy=0;entryX=0.5;entryY=0;entryDx=0;entryDy=0;" edge="1" parent="1" source="1f-LT_Su_b2MnICcZXaS-7" target="1f-LT_Su_b2MnICcZXaS-14">
          <mxGeometry width="50" height="50" relative="1" as="geometry">
            <mxPoint x="600" y="500" as="sourcePoint" />
            <mxPoint x="482.5" y="650" as="targetPoint" />
          </mxGeometry>
        </mxCell>
        <mxCell id="1f-LT_Su_b2MnICcZXaS-11" value="" style="endArrow=classic;html=1;fontColor=#00CC00;strokeColor=#00CC00;rounded=0;exitX=0.5;exitY=1;exitDx=0;exitDy=0;entryX=0.5;entryY=0;entryDx=0;entryDy=0;" edge="1" parent="1" source="1f-LT_Su_b2MnICcZXaS-7" target="1f-LT_Su_b2MnICcZXaS-15">
          <mxGeometry width="50" height="50" relative="1" as="geometry">
            <mxPoint x="353" y="550" as="sourcePoint" />
            <mxPoint x="682.5" y="649.9999999999998" as="targetPoint" />
          </mxGeometry>
        </mxCell>
        <mxCell id="1f-LT_Su_b2MnICcZXaS-12" value="" style="endArrow=classic;html=1;fontColor=#00CC00;strokeColor=#00CC00;rounded=0;exitX=0.5;exitY=1;exitDx=0;exitDy=0;" edge="1" parent="1" source="1f-LT_Su_b2MnICcZXaS-6" target="1f-LT_Su_b2MnICcZXaS-15">
          <mxGeometry width="50" height="50" relative="1" as="geometry">
            <mxPoint x="600" y="430" as="sourcePoint" />
            <mxPoint x="682.5" y="649.9999999999998" as="targetPoint" />
          </mxGeometry>
        </mxCell>
        <mxCell id="1f-LT_Su_b2MnICcZXaS-13" value="" style="endArrow=classic;html=1;strokeColor=#FF0000;rounded=0;exitX=0.5;exitY=1;exitDx=0;exitDy=0;entryX=0.45;entryY=0.042;entryDx=0;entryDy=0;entryPerimeter=0;" edge="1" parent="1" source="1f-LT_Su_b2MnICcZXaS-7" target="1f-LT_Su_b2MnICcZXaS-17">
          <mxGeometry width="50" height="50" relative="1" as="geometry">
            <mxPoint x="150" y="670" as="sourcePoint" />
            <mxPoint x="162.5" y="739.9999999999998" as="targetPoint" />
          </mxGeometry>
        </mxCell>
        <mxCell id="1f-LT_Su_b2MnICcZXaS-14" value="&lt;font style=&quot;border-color: var(--border-color); font-size: 16px;&quot;&gt;Fewer&amp;nbsp;&lt;/font&gt;final waste" style="rounded=0;whiteSpace=wrap;html=1;shadow=0;strokeColor=#000000;strokeWidth=1;fillColor=#d5e8d4;fontSize=16;" vertex="1" parent="1">
          <mxGeometry x="343" y="661" width="150" height="65" as="geometry" />
        </mxCell>
        <mxCell id="1f-LT_Su_b2MnICcZXaS-15" value="Improvement of work quality&amp;nbsp;" style="rounded=0;whiteSpace=wrap;html=1;shadow=0;strokeColor=#000000;strokeWidth=1;fillColor=#FFFF99;fontSize=16;" vertex="1" parent="1">
          <mxGeometry x="609" y="661" width="150" height="65" as="geometry" />
        </mxCell>
        <mxCell id="1f-LT_Su_b2MnICcZXaS-16" value="Upcycling" style="rounded=0;whiteSpace=wrap;html=1;shadow=0;strokeColor=#000000;strokeWidth=1;fillColor=#f8cecc;fontSize=16;" vertex="1" parent="1">
          <mxGeometry x="343" y="779" width="150" height="65" as="geometry" />
        </mxCell>
        <mxCell id="1f-LT_Su_b2MnICcZXaS-17" value="jobs losses" style="rounded=0;whiteSpace=wrap;html=1;shadow=0;strokeColor=#000000;strokeWidth=1;fillColor=#FFFF99;fontSize=16;" vertex="1" parent="1">
          <mxGeometry x="101" y="661" width="150" height="65" as="geometry" />
        </mxCell>
        <mxCell id="1f-LT_Su_b2MnICcZXaS-18" value="" style="endArrow=classic;html=1;fontColor=#00CC00;strokeColor=#00CC00;rounded=0;exitX=0.5;exitY=1;exitDx=0;exitDy=0;entryX=0.5;entryY=0;entryDx=0;entryDy=0;" edge="1" parent="1" source="1f-LT_Su_b2MnICcZXaS-14" target="1f-LT_Su_b2MnICcZXaS-16">
          <mxGeometry width="50" height="50" relative="1" as="geometry">
            <mxPoint x="264" y="984" as="sourcePoint" />
            <mxPoint x="364" y="984.5" as="targetPoint" />
          </mxGeometry>
        </mxCell>
      </root>
    </mxGraphModel>
  </diagram>
</mxfile>
